# xmcd
#
# Track frame offsets:
#	225
#	11600
#	21487
#	38162
#	57115
#	77587
#	91902
#	107570
#	128740
#	143865
#	161805
#	176715
#	191150
#	204635
#
# Disc length: 2882
#
# Revision: 3
# Processed by: cddbd v1.5.1PL0 Copyright (c) Steve Scherf et al.
# Submitted via: ExactAudioCopy v0.95a4
# Normalized: r2:TDELIM( - )
#
DISCID=bd0b3f0e
DTITLE=Various Artist - Real Country
DYEAR=1988
DGENRE=Country
TTITLE0=Highway 101 - Cry, Cry, Cry
TTITLE1=Dwight Yoakam - Always Late With Your Kisses
TTITLE2=Ricky Skaggs - Cajun Moon
TTITLE3=K.T. Oslin - 80's Ladies
TTITLE4=Foster and Lloyd - Crazy Over You
TTITLE5=Roseanne Cash - Tennessee Flat Top Box
TTITLE6=Prairie Oyster - Play Me Some Honky Tonk Music
TTITLE7=Hank Williams Jr. - My Name Is Bocephus
TTITLE8=Kathy Mattea - Eighteen Wheels And A Dozen Roses
TTITLE9=Judds - Love Is Alive
TTITLE10=Vince Gill - Let's Do Something
TTITLE11=Holly Dunn - Strangers Again
TTITLE12=David Lynn Jones - High Ridin' Heroes
TTITLE13=Steve Earle - Guitar Town
EXTD=
EXTT0=
EXTT1=
EXTT2=
EXTT3=
EXTT4=
EXTT5=
EXTT6=
EXTT7=
EXTT8=
EXTT9=
EXTT10=
EXTT11=
EXTT12=
EXTT13=
PLAYORDER=
